HIERARCHY
ROOT Hips
{
	OFFSET 0.000000 0.000000 0.000000
	CHANNELS 6 Xposition Yposition Zposition Zrotation Yrotation Xrotation 
	JOINT LHipJoint
	{
		OFFSET 0.000000 0.000000 0.000000
		CHANNELS 3 Zrotation Yrotation Xrotation
		JOINT LeftUpLeg
		{
			OFFSET 1.363060 -1.794630 0.839290
			CHANNELS 3 Zrotation Yrotation Xrotation
			JOINT LeftLeg
			{
				OFFSET 2.448110 -6.726130 0.000000
				CHANNELS 3 Zrotation Yrotation Xrotation
				JOINT LeftFoot
				{
					OFFSET 2.562200 -7.039590 0.000000
					CHANNELS 3 Zrotation Yrotation Xrotation
					JOINT LeftToeBase
					{
						OFFSET 0.157640 -0.433110 2.322550
						CHANNELS 3 Zrotation Yrotation Xrotation
						End Site
						{
							OFFSET 0.000000 0.000000 0.000000
						}
					}
				}
			}
		}
	}
	JOINT RHipJoint
	{
		OFFSET 0.000000 0.000000 0.000000
		CHANNELS 3 Zrotation Yrotation Xrotation
		JOINT RightUpLeg
		{
			OFFSET -1.305520 -1.794630 0.839290
			CHANNELS 3 Zrotation Yrotation Xrotation
			JOINT RightLeg
			{
				OFFSET -2.542530 -6.985550 0.000000
				CHANNELS 3 Zrotation Yrotation Xrotation
				JOINT RightFoot
				{
					OFFSET -2.568260 -7.056230 0.000000
					CHANNELS 3 Zrotation Yrotation Xrotation
					JOINT RightToeBase
					{
						OFFSET -0.164730 -0.452590 2.363150
						CHANNELS 3 Zrotation Yrotation Xrotation
						End Site
						{
							OFFSET 0.000000 0.000000 0.000000
						}
					}
				}
			}
		}
	}
	JOINT LowerBack
	{
		OFFSET 0.000000 0.000000 0.000000
		CHANNELS 3 Zrotation Yrotation Xrotation
		JOINT Spine
		{
			OFFSET 0.028270 2.035590 -0.193380
			CHANNELS 3 Zrotation Yrotation Xrotation
			JOINT Spine1
			{
				OFFSET 0.056720 2.048850 -0.042750
				CHANNELS 3 Zrotation Yrotation Xrotation
				JOINT Neck
				{
					OFFSET 0.000000 0.000000 0.000000
					CHANNELS 3 Zrotation Yrotation Xrotation
					JOINT Neck1
					{
						OFFSET -0.054170 1.746240 0.172020
						CHANNELS 3 Zrotation Yrotation Xrotation
						JOINT Head
						{
							OFFSET 0.104070 1.761360 -0.123970
							CHANNELS 3 Zrotation Yrotation Xrotation
							End Site
							{
								OFFSET 0.000000 0.000000 0.000000
							}
						}
					}
				}
				JOINT LeftShoulder
				{
					OFFSET 0.000000 0.000000 0.000000
					CHANNELS 3 Zrotation Yrotation Xrotation
					JOINT LeftArm
					{
						OFFSET 3.362410 1.200890 -0.311210
						CHANNELS 3 Zrotation Yrotation Xrotation
						JOINT LeftForeArm
						{
							OFFSET 4.983000 -0.000000 -0.000000
							CHANNELS 3 Zrotation Yrotation Xrotation
							JOINT LeftHand
							{
								OFFSET 3.483560 -0.000000 -0.000000
								CHANNELS 3 Zrotation Yrotation Xrotation
								JOINT LeftFingerBase
								{
									OFFSET 0.000000 0.000000 0.000000
									CHANNELS 3 Zrotation Yrotation Xrotation
									JOINT LeftHandIndex1
									{
										OFFSET 0.715260 -0.000000 -0.000000
										CHANNELS 3 Zrotation Yrotation Xrotation
										End Site
										{
											OFFSET 0.000000 0.000000 0.000000
										}
									}
								}
								JOINT LThumb
								{
									OFFSET 0.000000 0.000000 0.000000
									CHANNELS 3 Zrotation Yrotation Xrotation
									End Site
									{
										OFFSET 0.000000 0.000000 0.000000
									}
								}
							}
						}
					}
				}
				JOINT RightShoulder
				{
					OFFSET 0.000000 0.000000 0.000000
					CHANNELS 3 Zrotation Yrotation Xrotation
					JOINT RightArm
					{
						OFFSET -3.136600 1.374050 -0.404650
						CHANNELS 3 Zrotation Yrotation Xrotation
						JOINT RightForeArm
						{
							OFFSET -5.241900 -0.000000 -0.000000
							CHANNELS 3 Zrotation Yrotation Xrotation
							JOINT RightHand
							{
								OFFSET -3.444170 -0.000000 -0.000000
								CHANNELS 3 Zrotation Yrotation Xrotation
								JOINT RightFingerBase
								{
									OFFSET 0.000000 0.000000 0.000000
									CHANNELS 3 Zrotation Yrotation Xrotation
									JOINT RightHandIndex1
									{
										OFFSET -0.622530 -0.000000 -0.000000
										CHANNELS 3 Zrotation Yrotation Xrotation
										End Site
										{
											OFFSET 0.000000 0.000000 0.000000
										}
									}
								}
								JOINT RThumb
								{
									OFFSET 0.000000 0.000000 0.000000
									CHANNELS 3 Zrotation Yrotation Xrotation
									End Site
									{
										OFFSET 0.000000 0.000000 0.000000
									}
								}
							}
						}
					}
				}
			}
		}
	}
}
MOTION
Frames: 4
Frame Time: 0.008333
-1.475216 17.694871 -2.166219 25.440291 27.509885 74.875834 -1.746968 -0.942483 0.324086 0.066441 -11.864107 -27.919379 0.842229 9.044035 25.478615 0.537607 4.415673 21.011586 0.421500 -4.167200 -11.547400 2.711348 1.340611 -0.846619 -2.607090 1.806690 -86.897352 -3.507137 -9.326808 30.989414 1.715818 -10.179569 0.004186 -1.041100 -6.489100 18.210500 11.918687 10.011246 34.362947 17.189117 15.506384 17.367242 2.801907 8.072653 -6.756147 10.116053 -12.916688 -8.676174 -4.287097 -22.359335 -14.518903 -3.363800 -12.659300 -2.720200 0.167813 4.113854 -1.294566 -85.708828 -6.967238 93.779474 45.730939 -53.561031 -23.857103 0.735331 0.480853 -25.071184 40.224160 27.340758 20.778400 -7.125000 0.000000 0.000000 11.790000 63.625800 5.362700 -0.118629 -7.136651 -3.490315 -20.974311 32.512025 -30.304444 -14.962305 22.955718 -2.457726 -0.537104 0.109242 2.770823 -37.983943 8.626864 -6.521600 7.125000 0.000000 0.000000 -7.494500 -19.261300 -4.642400 
-1.481638 17.705004 -2.149062 25.589327 27.353149 75.098194 -1.776459 -0.896738 0.377181 -0.066408 -11.572906 -27.568242 0.836500 9.005823 25.430682 0.503476 4.496502 20.893344 0.490100 -4.488600 -12.455500 2.708993 1.334069 -0.866013 -2.876353 1.774833 -86.780000 -3.450854 -9.247143 30.703840 1.733240 -10.265882 0.039569 -1.067700 -6.569100 18.444900 12.182535 10.109075 34.621467 16.994648 15.752386 17.196911 2.419931 8.139797 -6.956835 10.693286 -13.042649 -8.807611 -4.400973 -22.641653 -14.572799 -3.426700 -12.818100 -2.817500 0.167234 4.094080 -1.285053 -85.314499 -7.029470 94.339471 45.656755 -53.532921 -23.806527 0.734228 0.487228 -25.310222 40.287040 27.362173 20.832200 -7.125000 0.000000 0.000000 11.874300 63.666400 5.412800 -0.132037 -7.157222 -3.489357 -20.684462 31.901593 -29.986857 -14.935294 22.950305 -2.440519 -0.529939 0.122525 2.795396 -37.722068 9.129880 -6.823500 7.125000 0.000000 0.000000 -7.249000 -18.693700 -4.580000 
-1.487156 17.715038 -2.133410 25.706925 27.201069 75.252729 -1.808875 -0.848273 0.434907 -0.196495 -11.293563 -27.191255 0.828974 8.964127 25.375173 0.479622 4.552264 20.835536 0.552400 -4.761200 -13.228800 2.709358 1.326015 -0.885789 -3.089514 1.753952 -86.624706 -3.394621 -9.163937 30.391003 1.789839 -10.584032 0.328751 -1.055500 -6.532600 18.337900 12.447118 10.189323 34.897082 16.788923 15.981375 17.028941 2.032912 8.198078 -7.163409 11.275249 -13.131828 -8.744456 -4.493090 -22.859190 -14.798212 -3.452500 -12.948500 -2.985000 0.165429 4.070893 -1.275572 -84.905746 -7.112772 94.897489 45.565959 -53.497494 -23.741916 0.732667 0.495548 -25.577625 40.349265 27.435759 20.918000 -7.125000 0.000000 0.000000 11.953600 63.765400 5.477200 -0.152912 -7.183229 -3.488727 -20.314992 31.332284 -29.424040 -14.905311 22.931606 -2.415483 -0.542660 0.144742 2.500040 -38.169417 9.697890 -7.337200 7.125000 0.000000 0.000000 -7.473500 -17.964200 -4.845600 
-1.491170 17.726476 -2.117657 25.808500 27.124904 75.362699 -1.835853 -0.796550 0.493001 -0.253548 -11.019342 -26.808489 0.825798 8.922147 25.308745 0.452316 4.705006 20.870531 0.538500 -4.701900 -13.060200 2.709272 1.317046 -0.902736 -3.171067 1.719073 -86.432004 -3.333919 -9.074434 30.068031 1.807367 -10.684255 0.547574 -0.977100 -6.292500 17.635400 12.800596 10.250569 35.173262 16.611691 16.212322 16.876173 1.630183 8.259145 -7.331743 11.861330 -13.231791 -8.587646 -4.539809 -23.077317 -15.136833 -3.445500 -13.084700 -3.194400 0.163137 4.041564 -1.264656 -84.477559 -7.145812 95.424242 45.626236 -53.530960 -23.796189 0.730386 0.503169 -25.708718 40.311575 27.565485 20.970300 -7.125000 0.000000 0.000000 11.888900 63.895700 5.483300 -0.181452 -7.207408 -3.489921 -19.879222 30.707158 -28.551957 -14.911860 22.976975 -2.408714 -0.564475 0.155739 2.214447 -38.712103 9.674617 -7.446500 7.125000 0.000000 0.000000 -7.838100 -17.933400 -5.091900 
